HIERARCHY
ROOT SpineBase
{
  OFFSET 0.000000 0.000000 0.000000
  CHANNELS 6 Xposition Yposition Zposition Zrotation Xrotation Yrotation
  JOINT SpineMid
  {
    OFFSET 0.000000 28.173198 -0.000000
    CHANNELS 3 Zrotation Xrotation Yrotation
    JOINT SpineShoulder
    {
      OFFSET 0.076802 20.950760 -0.668336
      CHANNELS 3 Zrotation Xrotation Yrotation
      JOINT Neck
      {
        OFFSET 0.062840 6.940046 -0.523973
        CHANNELS 3 Zrotation Xrotation Yrotation
        JOINT Head
        {
          OFFSET -3.948876 13.108990 -0.161992
          CHANNELS 3 Zrotation Xrotation Yrotation
          End Site
          {
            OFFSET 0 0 0
          }
        }
      }
      JOINT ShoulderLeft
      {
        OFFSET -17.438873 -4.781209 4.948967
        CHANNELS 3 Zrotation Xrotation Yrotation
        JOINT ElbowLeft
        {
          OFFSET -1.473531 -25.565528 -0.551721
          CHANNELS 3 Zrotation Xrotation Yrotation
          JOINT WristLeft
          {
            OFFSET 0.805737 -20.172956 -5.952937
            CHANNELS 3 Zrotation Xrotation Yrotation
            JOINT HandLeft
            {
              OFFSET 1.661294 -6.198008 -2.907143
              CHANNELS 3 Zrotation Xrotation Yrotation
              JOINT HandTipLeft
              {
                OFFSET 1.242546 -6.528247 -0.416302
                CHANNELS 3 Zrotation Xrotation Yrotation
                End Site
                {
                  OFFSET 0 0 0
                }
              }
              JOINT ThumbLeft
              {
                OFFSET 3.508848 1.140193 -1.434047
                CHANNELS 3 Zrotation Xrotation Yrotation
                End Site
                {
                  OFFSET 0 0 0
                }
              }
            }
          }
        }
      }
      JOINT ShoulderRight
      {
        OFFSET 15.175779 -2.500303 -5.859512
        CHANNELS 3 Zrotation Xrotation Yrotation
        JOINT ElbowRight
        {
          OFFSET 5.993507 -22.212038 0.612059
          CHANNELS 3 Zrotation Xrotation Yrotation
          JOINT WristRight
          {
            OFFSET -1.030990 -21.915421 -7.995525
            CHANNELS 3 Zrotation Xrotation Yrotation
            JOINT HandRight
            {
              OFFSET -0.351331 -7.094072 -0.994522
              CHANNELS 3 Zrotation Xrotation Yrotation
              JOINT HandTipRight
              {
                OFFSET 0.226225 -5.581757 -1.402141
                CHANNELS 3 Zrotation Xrotation Yrotation
                End Site
                {
                  OFFSET 0 0 0
                }
              }
              JOINT ThumbRight
              {
                OFFSET 3.151114 -0.643655 -3.038403
                CHANNELS 3 Zrotation Xrotation Yrotation
                End Site
                {
                  OFFSET 0 0 0
                }
              }
            }
          }
        }
      }
    }
  }
  JOINT HipLeft
  {
    OFFSET -5.528072 0.160393 -1.520457
    CHANNELS 3 Zrotation Xrotation Yrotation
    JOINT KneeLeft
    {
      OFFSET 0.365734 -33.173088 3.742364
      CHANNELS 3 Zrotation Xrotation Yrotation
      JOINT AnkleLeft
      {
        OFFSET 2.063763 -31.233507 6.554847
        CHANNELS 3 Zrotation Xrotation Yrotation
        JOINT FootLeft
        {
          OFFSET -1.670354 -6.531355 -5.876501
          CHANNELS 3 Zrotation Xrotation Yrotation
          End Site
          {
            OFFSET 0 0 0
          }
        }
      }
    }
  }
  JOINT HipRight
  {
    OFFSET 6.400432 1.205120 -5.391437
    CHANNELS 3 Zrotation Xrotation Yrotation
    JOINT KneeRight
    {
      OFFSET 9.838578 -31.967883 1.922376
      CHANNELS 3 Zrotation Xrotation Yrotation
      JOINT AnkleRight
      {
        OFFSET 6.436310 -30.298714 6.482532
        CHANNELS 3 Zrotation Xrotation Yrotation
        JOINT FootRight
        {
          OFFSET 0.344345 -6.494481 -6.416888
          CHANNELS 3 Zrotation Xrotation Yrotation
          End Site
          {
            OFFSET 0 0 0
          }
        }
      }
    }
  }
}
MOTION
Frames: 8
Frame Time: 0.033333
-49.304436 72.417799 389.280116 -0.000000 -0.000000 17.979032 0.000000 0.000000 -17.979032 -0.000000 0.000000 0.000000 -0.000000 0.000000 0.000000 0.000000 0.000000 0.000000 -0.000000 0.000000 0.000000 -0.000000 0.000000 0.000000 -0.000000 0.000000 0.000000 -0.000000 0.000000 0.000000 0.000000 0.000000 0.000000 0.000000 0.000000 0.000000 -0.000000 0.000000 0.000000 -0.000000 0.000000 0.000000 -0.000000 0.000000 0.000000 -0.000000 0.000000 0.000000 0.000000 0.000000 0.000000 0.000000 0.000000 0.000000 0.000000 0.000000 -17.979032 -0.000000 0.000000 0.000000 -0.000000 0.000000 0.000000 0.000000 0.000000 0.000000 0.000000 0.000000 -17.979032 -0.000000 0.000000 0.000000 -0.000000 0.000000 0.000000 0.000000 0.000000 0.000000
-49.229775 72.432371 389.299657 0.137317 -0.068718 17.432291 -0.110424 0.106699 -17.432105 -0.000000 0.000000 0.000000 -0.000000 0.000000 0.000000 0.000000 0.000000 0.000000 -0.000000 0.000000 0.000000 0.583186 0.933974 -0.139182 -0.386601 -3.128314 -0.545975 -3.495453 4.308614 1.493909 0.000000 0.000000 0.000000 0.000000 0.000000 0.000000 5.917759 2.259451 0.647473 -8.624183 -5.576709 0.068217 3.818866 4.755352 -1.510156 -2.411224 -0.599236 0.548417 0.000000 0.000000 0.000000 0.000000 0.000000 0.000000 -0.110424 0.106699 -17.432105 -0.000000 0.000000 0.000000 -0.990188 -0.414236 0.994302 0.000000 0.000000 0.000000 -0.110424 0.106699 -17.432105 -0.000000 0.000000 0.000000 -0.755101 -0.477089 0.720858 0.000000 0.000000 0.000000
-49.163695 72.442969 389.309020 0.259346 -0.128378 16.935822 -0.210703 0.198357 -16.935167 -0.000000 0.000000 0.000000 0.030927 1.048045 0.315824 0.000000 0.000000 0.000000 0.454759 0.929424 -0.067077 0.601392 0.778938 -0.181467 -0.730237 -5.967639 -1.056467 -6.611663 8.142104 3.162315 0.000000 0.000000 0.000000 0.000000 0.000000 0.000000 11.274085 4.432942 1.043926 -16.149916 -10.028993 -0.518379 6.587440 8.472533 -2.816135 -4.175013 -1.329292 0.915713 0.000000 0.000000 0.000000 0.000000 0.000000 0.000000 -0.210703 0.198357 -16.935167 -0.000000 0.000000 0.000000 -1.844810 -0.819761 1.860592 0.000000 0.000000 0.000000 -0.210703 0.198357 -16.935167 0.181617 1.164552 0.284928 -1.580834 -2.137058 1.002319 0.000000 0.000000 0.000000
-49.106196 72.449593 389.308204 0.366088 -0.178981 16.489280 -0.300234 0.275525 -16.487987 -0.000000 0.000000 0.000000 0.062419 1.423758 0.428896 0.000000 0.000000 0.000000 0.643420 1.256152 -0.093351 0.781924 1.076219 -0.244370 -1.044830 -8.467898 -1.514767 -9.249501 11.434019 4.846253 0.000000 0.000000 0.000000 0.000000 0.000000 0.000000 15.752828 6.367770 1.230877 -22.348458 -13.417295 -1.428119 8.427039 11.407333 -3.816281 -5.377801 -2.203256 1.141849 0.000000 0.000000 0.000000 0.000000 0.000000 0.000000 -0.300234 0.275525 -16.487987 -0.000000 0.000000 0.000000 -2.552009 -1.205265 2.587229 0.000000 0.000000 0.000000 -0.300234 0.275525 -16.487987 0.257343 1.592443 0.390759 -2.179170 -3.084227 1.344642 0.000000 0.000000 0.000000
-49.057278 72.452243 389.297210 0.457546 -0.220529 16.092328 -0.378496 0.338707 -16.090328 -0.000000 0.000000 0.000000 0.105355 1.700352 0.511929 0.000000 0.000000 0.000000 0.803880 1.485569 -0.113414 0.891195 1.328807 -0.290631 -1.340076 -10.578821 -1.904777 -11.307301 14.152493 6.382192 0.000000 0.000000 0.000000 0.000000 0.000000 0.000000 19.126674 7.954706 1.283566 -26.997363 -15.849061 -2.386082 9.410571 13.746853 -4.460933 -6.074622 -3.237027 1.253931 0.000000 0.000000 0.000000 0.000000 0.000000 0.000000 -0.378496 0.338707 -16.090328 -0.000000 0.000000 0.000000 -3.103086 -1.560564 3.165561 0.000000 0.000000 0.000000 -0.378496 0.338707 -16.090328 0.323751 1.917091 0.472539 -2.648681 -3.948822 1.590025 0.000000 0.000000 0.000000
-49.016941 72.450919 389.276037 0.533724 -0.253027 15.744652 -0.445050 0.388350 -15.741965 -0.000000 0.000000 0.000000 0.160078 1.877922 0.564972 0.000000 0.000000 0.000000 0.934705 1.614882 -0.126450 0.934298 1.545988 -0.321263 -1.621525 -12.253175 -2.211061 -12.689614 16.288950 7.617137 0.000000 0.000000 0.000000 0.000000 0.000000 0.000000 21.258749 9.132013 1.282276 -29.932535 -17.444294 -3.187935 9.571906 15.618984 -4.724033 -6.295223 -4.449841 1.271107 0.000000 0.000000 0.000000 0.000000 0.000000 0.000000 -0.445050 0.388350 -15.741965 -0.000000 0.000000 0.000000 -3.492491 -1.877121 3.589926 0.000000 0.000000 0.000000 -0.445050 0.388350 -15.741965 0.381247 2.138437 0.530512 -2.988621 -4.730611 1.743470 0.000000 0.000000 0.000000
-48.971755 72.448514 389.205558 0.619128 -0.284618 15.337614 -0.521809 0.438229 -15.334081 -0.000000 0.000000 0.000000 0.269461 2.120306 0.636813 0.000000 0.000000 0.000000 1.097985 1.761067 -0.142114 0.727225 1.698519 -0.288295 -1.702511 -12.300119 -2.126588 -13.703718 17.059987 8.080034 0.000000 0.000000 0.000000 0.000000 0.000000 0.000000 17.443674 9.248898 1.504497 -24.216131 -17.307108 -3.169508 6.591440 16.966446 -3.553561 -4.904059 -6.362953 1.052095 0.000000 0.000000 0.000000 0.000000 0.000000 0.000000 -0.521809 0.438229 -15.334081 -0.000000 0.000000 0.000000 -3.737891 -2.175564 3.882219 0.000000 0.000000 0.000000 -1.308288 0.919718 -15.299034 1.337991 2.057565 0.559516 -3.184629 -5.994986 1.717050 0.000000 0.000000 0.000000
-48.957272 72.434909 389.171835 0.656485 -0.306737 15.070772 -0.554169 0.466862 -15.066756 -0.000000 0.000000 0.000000 0.348989 2.105154 0.631674 0.000000 0.000000 0.000000 1.173086 1.777436 -0.146007 0.556259 1.519469 -0.262611 -1.748101 -13.892121 -2.606302 -15.126167 18.696845 9.389102 0.000000 0.000000 0.000000 0.000000 0.000000 0.000000 17.179983 9.559529 1.555143 -23.810931 -17.381961 -3.331793 4.868711 17.584452 -2.931248 -3.981754 -7.543615 0.955845 0.000000 0.000000 0.000000 0.000000 0.000000 0.000000 -0.554169 0.466862 -15.066756 -0.000000 0.000000 0.000000 -3.456467 -2.554506 3.731937 0.000000 0.000000 0.000000 -1.389478 1.004148 -15.019956 1.436965 2.043129 0.564172 -3.283865 -6.933562 1.690641 0.000000 0.000000 0.000000
